<?xml version="1.0" encoding="iso-8859-1"?>
<!-- Generator: Adobe Illustrator 19.0.0, SVG Export Plug-In . SVG Version: 6.00 Build 0)  -->
<svg version="1.1" id="Layer_1" xmlns="http://www.w3.org/2000/svg" xmlns:xlink="http://www.w3.org/1999/xlink" x="0px" y="0px"
	 viewBox="0 0 512 512" style="enable-background:new 0 0 512 512;" xml:space="preserve">
<polygon style="fill:#4E5058;" points="160.705,10.24 10.24,153.6 10.24,501.76 348.16,501.76 501.76,358.4 501.76,10.24 "/>
<g>
	<path style="fill:#A6DE64;" d="M92.16,266.24H10.24C4.585,266.24,0,261.655,0,256v-81.92c0-5.655,4.585-10.24,10.24-10.24h81.92
		c5.655,0,10.24,4.585,10.24,10.24V256C102.4,261.655,97.815,266.24,92.16,266.24z"/>
	<path style="fill:#A6DE64;" d="M215.04,266.24h-81.92c-5.655,0-10.24-4.585-10.24-10.24v-81.92c0-5.655,4.585-10.24,10.24-10.24
		h81.92c5.655,0,10.24,4.585,10.24,10.24V256C225.28,261.655,220.695,266.24,215.04,266.24z"/>
	<path style="fill:#A6DE64;" d="M337.92,266.24H256c-5.655,0-10.24-4.585-10.24-10.24v-81.92c0-5.655,4.585-10.24,10.24-10.24h81.92
		c5.655,0,10.24,4.585,10.24,10.24V256C348.16,261.655,343.575,266.24,337.92,266.24z"/>
	<path style="fill:#A6DE64;" d="M92.16,389.12H10.24C4.585,389.12,0,384.535,0,378.88v-81.92c0-5.655,4.585-10.24,10.24-10.24h81.92
		c5.655,0,10.24,4.585,10.24,10.24v81.92C102.4,384.535,97.815,389.12,92.16,389.12z"/>
	<path style="fill:#A6DE64;" d="M215.04,389.12h-81.92c-5.655,0-10.24-4.585-10.24-10.24v-81.92c0-5.655,4.585-10.24,10.24-10.24
		h81.92c5.655,0,10.24,4.585,10.24,10.24v81.92C225.28,384.535,220.695,389.12,215.04,389.12z"/>
	<path style="fill:#A6DE64;" d="M337.92,389.12H256c-5.655,0-10.24-4.585-10.24-10.24v-81.92c0-5.655,4.585-10.24,10.24-10.24h81.92
		c5.655,0,10.24,4.585,10.24,10.24v81.92C348.16,384.535,343.575,389.12,337.92,389.12z"/>
	<path style="fill:#A6DE64;" d="M92.16,512H10.24C4.585,512,0,507.415,0,501.76v-81.92c0-5.655,4.585-10.24,10.24-10.24h81.92
		c5.655,0,10.24,4.585,10.24,10.24v81.92C102.4,507.415,97.815,512,92.16,512z"/>
	<path style="fill:#A6DE64;" d="M215.04,512h-81.92c-5.655,0-10.24-4.585-10.24-10.24v-81.92c0-5.655,4.585-10.24,10.24-10.24h81.92
		c5.655,0,10.24,4.585,10.24,10.24v81.92C225.28,507.415,220.695,512,215.04,512z"/>
	<path style="fill:#A6DE64;" d="M337.92,512H256c-5.655,0-10.24-4.585-10.24-10.24v-81.92c0-5.655,4.585-10.24,10.24-10.24h81.92
		c5.655,0,10.24,4.585,10.24,10.24v81.92C348.16,507.415,343.575,512,337.92,512z"/>
</g>
<g>
	<path style="fill:#7DBB34;" d="M102.4,174.08c0-5.655-4.585-10.24-10.24-10.24H10.24C4.585,163.84,0,168.425,0,174.08V256
		c0,5.655,4.585,10.24,10.24,10.24H83.2l19.2-19.2V174.08z"/>
	<path style="fill:#7DBB34;" d="M83.2,266.24h8.96c5.655,0,10.24-4.585,10.24-10.24v-8.96L83.2,266.24z"/>
	<path style="fill:#7DBB34;" d="M133.12,163.84c-5.655,0-10.24,4.585-10.24,10.24v52.48l62.72-62.72H133.12z"/>
	<path style="fill:#7DBB34;" d="M215.04,266.24c5.655,0,10.24-4.585,10.24-10.24v-23.04L192,266.24H215.04z"/>
	<path style="fill:#7DBB34;" d="M337.92,163.84H294.4l-48.64,48.64V256c0,5.655,4.585,10.24,10.24,10.24h81.92
		c5.655,0,10.24-4.585,10.24-10.24v-81.92C348.16,168.425,343.575,163.84,337.92,163.84z"/>
	<path style="fill:#7DBB34;" d="M10.24,286.72C4.585,286.72,0,291.305,0,296.96v52.48l62.72-62.72H10.24z"/>
	<path style="fill:#7DBB34;" d="M92.16,389.12c5.655,0,10.24-4.585,10.24-10.24v-23.04l-33.28,33.28H92.16z"/>
	<path style="fill:#7DBB34;" d="M215.04,286.72h-43.52l-48.64,48.64v43.52c0,5.655,4.585,10.24,10.24,10.24h81.92
		c5.655,0,10.24-4.585,10.24-10.24v-81.92C225.28,291.305,220.695,286.72,215.04,286.72z"/>
	<path style="fill:#7DBB34;" d="M256,286.72c-5.655,0-10.24,4.585-10.24,10.24v70.4l80.64-80.64H256z"/>
	<path style="fill:#7DBB34;" d="M337.92,389.12c5.655,0,10.24-4.585,10.24-10.24v-47.36l-57.6,57.6H337.92z"/>
	<path style="fill:#7DBB34;" d="M0,419.84v38.4l48.64-48.64h-38.4C4.585,409.6,0,414.185,0,419.84z"/>
	<path style="fill:#7DBB34;" d="M92.16,409.6H48.64L0,458.24v43.52C0,507.415,4.585,512,10.24,512h81.92
		c5.655,0,10.24-4.585,10.24-10.24v-81.92C102.4,414.185,97.815,409.6,92.16,409.6z"/>
	<path style="fill:#7DBB34;" d="M122.88,419.84v70.4l80.64-80.64h-70.4C127.465,409.6,122.88,414.185,122.88,419.84z"/>
	<path style="fill:#7DBB34;" d="M215.04,512c5.655,0,10.24-4.585,10.24-10.24V454.4l-57.6,57.6H215.04z"/>
	<path style="fill:#7DBB34;" d="M245.76,419.84v14.08l24.32-24.32H256C250.345,409.6,245.76,414.185,245.76,419.84z"/>
	<path style="fill:#7DBB34;" d="M337.92,409.6h-67.84l-24.32,24.32v67.84c0,5.655,4.585,10.24,10.24,10.24h32l60.16-60.16v-32
		C348.16,414.185,343.575,409.6,337.92,409.6z"/>
</g>
<g>
	<path style="fill:#B169BF;" d="M393.337,227.843l-24.696,23.05c-5.655,5.279-10.24,4.973-10.24-0.682v-81.92
		c0-5.655,4.585-14.519,10.24-19.798l24.696-23.05c5.655-5.279,10.24-4.973,10.24,0.682v81.92
		C403.577,213.701,398.992,222.564,393.337,227.843z"/>
	<path style="fill:#B169BF;" d="M447.548,177.246l-24.696,23.05c-5.655,5.279-10.24,4.973-10.24-0.682v-81.92
		c0-5.655,4.585-14.519,10.24-19.798l24.696-23.05c5.655-5.279,10.24-4.973,10.24,0.682v81.92
		C457.788,163.103,453.203,171.967,447.548,177.246z"/>
	<path style="fill:#B169BF;" d="M501.76,126.647l-24.696,23.05c-5.655,5.279-10.24,4.973-10.24-0.682v-81.92
		c0-5.655,4.585-14.519,10.24-19.798l24.696-23.05c5.655-5.279,10.24-4.973,10.24,0.682v81.92
		C512,112.506,507.415,121.368,501.76,126.647z"/>
	<path style="fill:#B169BF;" d="M393.337,350.723l-24.696,23.05c-5.655,5.279-10.24,4.973-10.24-0.682v-81.92
		c0-5.655,4.585-14.519,10.24-19.798l24.696-23.05c5.655-5.279,10.24-4.973,10.24,0.682v81.92
		C403.577,336.581,398.992,345.444,393.337,350.723z"/>
	<path style="fill:#B169BF;" d="M447.548,300.126l-24.696,23.05c-5.655,5.279-10.24,4.973-10.24-0.682v-81.92
		c0-5.655,4.585-14.519,10.24-19.798l24.696-23.05c5.655-5.279,10.24-4.973,10.24,0.682v81.92
		C457.788,285.983,453.203,294.847,447.548,300.126z"/>
	<path style="fill:#B169BF;" d="M501.76,249.527l-24.696,23.05c-5.655,5.279-10.24,4.973-10.24-0.682v-81.92
		c0-5.655,4.585-14.519,10.24-19.798l24.696-23.05c5.655-5.279,10.24-4.973,10.24,0.682v81.92
		C512,235.386,507.415,244.248,501.76,249.527z"/>
	<path style="fill:#B169BF;" d="M393.337,473.603l-24.696,23.05c-5.655,5.279-10.24,4.973-10.24-0.682v-81.92
		c0-5.655,4.585-14.519,10.24-19.798l24.696-23.05c5.655-5.279,10.24-4.973,10.24,0.682v81.92
		C403.577,459.461,398.992,468.324,393.337,473.603z"/>
	<path style="fill:#B169BF;" d="M447.548,423.006l-24.696,23.05c-5.655,5.279-10.24,4.973-10.24-0.682v-81.92
		c0-5.655,4.585-14.519,10.24-19.798l24.696-23.05c5.655-5.279,10.24-4.973,10.24,0.682v81.92
		C457.788,408.863,453.203,417.727,447.548,423.006z"/>
	<path style="fill:#B169BF;" d="M501.76,372.407l-24.696,23.05c-5.655,5.279-10.24,4.973-10.24-0.682v-81.92
		c0-5.655,4.585-14.519,10.24-19.798l24.696-23.05c5.655-5.279,10.24-4.973,10.24,0.682v81.92
		C512,358.266,507.415,367.128,501.76,372.407z"/>
</g>
<g>
	<path style="fill:#F9D84E;" d="M224.807,34.936L251.58,10.24C257.712,4.585,258.097,0,252.442,0h-81.92
		c-5.655,0-15.21,4.585-21.341,10.24l-26.774,24.696c-6.131,5.655-6.516,10.24-0.861,10.24h81.92
		C209.121,45.176,218.675,40.591,224.807,34.936z"/>
	<path style="fill:#F9D84E;" d="M166.035,89.148l26.774-24.696c6.131-5.655,6.516-10.24,0.861-10.24h-81.92
		c-5.655,0-15.21,4.585-21.341,10.24L63.635,89.148c-6.131,5.655-6.516,10.24-0.861,10.24h81.92
		C150.349,99.388,159.904,94.803,166.035,89.148z"/>
	<path style="fill:#F9D84E;" d="M107.263,143.36l26.774-24.696c6.131-5.655,6.516-10.24,0.861-10.24h-81.92
		c-5.655,0-15.21,4.585-21.341,10.24L4.863,143.36c-6.131,5.655-6.516,10.24-0.861,10.24h81.92
		C91.578,153.6,101.132,149.015,107.263,143.36z"/>
	<path style="fill:#F9D84E;" d="M347.687,34.936L374.46,10.24C380.592,4.585,380.977,0,375.322,0h-81.92
		c-5.655,0-15.21,4.585-21.341,10.24l-26.774,24.696c-6.131,5.655-6.516,10.24-0.861,10.24h81.92
		C332.001,45.176,341.555,40.591,347.687,34.936z"/>
	<path style="fill:#F9D84E;" d="M288.915,89.148l26.774-24.696c6.131-5.655,6.516-10.24,0.861-10.24h-81.92
		c-5.655,0-15.21,4.585-21.341,10.24l-26.774,24.696c-6.131,5.655-6.516,10.24-0.861,10.24h81.92
		C273.229,99.388,282.784,94.803,288.915,89.148z"/>
	<path style="fill:#F9D84E;" d="M230.143,143.36l26.774-24.696c6.131-5.655,6.516-10.24,0.861-10.24h-81.92
		c-5.655,0-15.21,4.585-21.341,10.24l-26.774,24.696c-6.131,5.655-6.516,10.24-0.861,10.24h81.92
		C214.458,153.6,224.012,149.015,230.143,143.36z"/>
	<path style="fill:#F9D84E;" d="M470.567,34.936L497.34,10.24C503.472,4.585,503.857,0,498.202,0h-81.92
		c-5.655,0-15.21,4.585-21.341,10.24l-26.774,24.696c-6.131,5.655-6.516,10.24-0.861,10.24h81.92
		C454.881,45.176,464.435,40.591,470.567,34.936z"/>
	<path style="fill:#F9D84E;" d="M411.795,89.148l26.774-24.696c6.131-5.655,6.517-10.24,0.861-10.24h-81.92
		c-5.655,0-15.21,4.585-21.341,10.24l-26.774,24.696c-6.131,5.655-6.516,10.24-0.861,10.24h81.92
		C396.109,99.388,405.664,94.803,411.795,89.148z"/>
	<path style="fill:#F9D84E;" d="M353.023,143.36l26.774-24.696c6.131-5.655,6.517-10.24,0.861-10.24h-81.92
		c-5.655,0-15.21,4.585-21.341,10.24l-26.774,24.696c-6.131,5.655-6.516,10.24-0.861,10.24h81.92
		C337.338,153.6,346.892,149.015,353.023,143.36z"/>
</g>
<g>
</g>
<g>
</g>
<g>
</g>
<g>
</g>
<g>
</g>
<g>
</g>
<g>
</g>
<g>
</g>
<g>
</g>
<g>
</g>
<g>
</g>
<g>
</g>
<g>
</g>
<g>
</g>
<g>
</g>
</svg>
